<?xml version="1.0" encoding="utf-8"?>
<!-- Generator: Adobe Illustrator 26.0.1, SVG Export Plug-In . SVG Version: 6.00 Build 0)  -->
<svg version="1.1" id="Layer_1" xmlns="http://www.w3.org/2000/svg" xmlns:xlink="http://www.w3.org/1999/xlink" x="0px" y="0px"
	 viewBox="0 0 900 600" style="enable-background:new 0 0 900 600;" xml:space="preserve">

<path class="st0" d="M0,0h900v600H0V0z"/>
<linearGradient id="SVGID_1_" gradientUnits="userSpaceOnUse" x1="466.6022" y1="65.8152" x2="461.2112" y2="638.0372" gradientTransform="matrix(1 0 0 -1 0 602)">
	<stop  offset="0" style="stop-color:#FFFFFF"/>
	<stop  offset="1" style="stop-color:#EEEEEE"/>
</linearGradient>
<path class="st1" d="M354.5,232c29-36.7,90.8-52,132,3c35,46.6,50.3,49.3,76.9,58.2c17.6,5.9,46.3,13.8,29.6,59.1
	c-21.9,59.4-130.4,75.4-189.7,53.2C346.5,384.3,301.7,298.5,354.5,232L354.5,232z"/>
<path class="st2" d="M461.5,142.1l-9.6-9.6l9.6-9.6l9.6,9.6L461.5,142.1z M657.5,359.7l-10.8-10.8l10.8-10.8l10.8,10.8L657.5,359.7
	L657.5,359.7z"/>
<path class="st3" d="M469,411c0,0-90-71.9-90-137.5c0-48.3,40.3-87.5,90-87.5c49.7,0,90,39.2,90,87.5C559,339.1,469,411,469,411z"/>
<path class="st4" d="M469,265.5c-6,0-10.8,4.8-10.8,10.6s4.9,10.5,10.9,10.5s10.8-4.7,10.8-10.6C479.9,270.2,475,265.5,469,265.5"/>
<path class="st5" d="M490.1,130.2c72.8-14.3,128.5,65.3,110.9,124"/>
<path class="st6" d="M590,270c-4.6,2.5-6.4,8.2-3.9,12.8c2.4,4.6,8.2,6.4,12.8,3.9c4.6-2.5,6.4-8.2,3.9-12.8
	C600.3,269.2,594.6,267.5,590,270L590,270z"/>
<path class="st7" d="M554.3,516.5l-407.4-0.9c2.9-1.7,5.9-3.4,8.9-5.1c9.7-5.3,23.8-12.3,41.5-19.4c35.6-14.1,85.8-28.3,144.4-28.7
	C400.8,462,453.7,475.8,493,490c19.7,7.1,35.9,14.3,47.8,20C545.3,512.1,549.8,514.3,554.3,516.5L554.3,516.5z"/>
<path class="st7" d="M775,516.5l-323.1-0.7c1.6-1,3.6-2.1,5.9-3.3c7.7-4.2,19-9.8,33.2-15.5c28.4-11.3,68.6-22.7,115.5-23
	c47.1-0.3,89.5,10.7,120.9,22c15.7,5.7,28.7,11.5,38.2,16C768.8,513.5,771.9,515,775,516.5L775,516.5z M148.6,249.6
	c2.8-11.4,29.4-28.1,43.6-18c4.4-21.7,8.4-35.3,22.7-46c14.2-10.7,38,3.3,41.8,32.6c3.8-12,23.2-28.3,38.8-14.6
	c14.4,12.7,15.9,33.9,14.4,46L148.6,249.6L148.6,249.6z M724.4,231.5c-1.6-6.5-16.6-15.9-24.7-10.2c-2.5-12.3-4.8-20-12.8-26.1
	c-8.1-6.1-21.5,1.9-23.7,18.5c-2.2-6.8-13.1-16-22-8.3c-8.2,7.2-9,19.2-8.1,26.1L724.4,231.5L724.4,231.5L724.4,231.5z M607,148.8
	c1.1-4.5,11.6-11.1,17.2-7.1c1.7-8.6,3.3-14,9-18.2c5.6-4.2,15,1.3,16.5,12.9c1.5-4.8,9.2-11.2,15.4-5.8c5.7,5,6.3,13.4,5.7,18.2
	L607,148.8L607,148.8z M708,180.8c1.1-4.5,11.6-11.1,17.2-7.1c1.7-8.6,3.3-14,9-18.2c5.6-4.2,15,1.3,16.5,12.9
	c1.5-4.8,9.2-11.2,15.4-5.8c5.7,5,6.3,13.4,5.7,18.2L708,180.8L708,180.8L708,180.8z M375.5,154.3c-1.6-6.5-16.6-15.9-24.7-10.2
	c-2.5-12.3-4.8-20-12.8-26.1c-8.1-6.1-21.5,1.9-23.7,18.5c-2.2-6.8-13.1-16-22-8.3c-8.2,7.2-9,19.2-8.1,26.1L375.5,154.3
	L375.5,154.3L375.5,154.3z"/>
<circle class="st6" cx="329.9" cy="280.9" r="6.9"/>
<circle class="st6" cx="386.6" cy="167.4" r="7.1"/>
<path class="st6" d="M325.5,362.1c3.7,5.3,1.1,13.5,1.1,13.5s-8.5-0.5-12.2-5.9c-3.7-5.3-1.1-13.5-1.1-13.5S321.9,356.8,325.5,362.1
	z M660.5,270.5c-3.7,5.3-1.1,13.5-1.1,13.5s8.5-0.5,12.2-5.9c3.7-5.3,1.1-13.5,1.1-13.5S664.2,265.1,660.5,270.5z M568.4,401.1
	c-3.7,5.3-1.1,13.5-1.1,13.5s8.5-0.5,12.2-5.9c3.7-5.3,1.1-13.5,1.1-13.5S572.1,395.8,568.4,401.1z M580.6,168.9
	c-2.8,4-0.8,10.2-0.8,10.2s6.5-0.4,9.2-4.4c2.8-4,0.8-10.2,0.8-10.2S583.4,164.9,580.6,168.9L580.6,168.9z"/>
<path class="st8" d="M219.3,472.3c0,11.3-7.4,21.5-16.6,21.5c-9.2,0-16.6-10.2-16.6-21.5c0-11.3,11.4-44.3,16.6-44.3
	C207.8,428,219.3,460.9,219.3,472.3z"/>

<mask maskUnits="userSpaceOnUse" x="198.9" y="439.4" width="8.3" height="68.8" id="b_00000142162401670961199080000003885413735574761868_">
	<path class="st9" d="M203,442.4L203,442.4c-0.6,0-1.1,0.5-1.1,1.2v61.6h2.3v-61.6C204.1,442.9,203.6,442.4,203,442.4z"/>
</mask>
<path class="st10" d="M201.9,505.1h-3c0,1.7,1.3,3,3,3V505.1z M204.1,505.1v3c1.7,0,3-1.3,3-3H204.1z M203,439.4L203,439.4l0,6h0
	V439.4z M203,439.4c-2.4,0-4.1,2-4.1,4.2h6c0,0.9-0.7,1.8-1.9,1.8V439.4z M198.9,443.5v61.6h6v-61.6H198.9z M201.9,508.1h2.3v-6
	h-2.3V508.1z M207.1,505.1v-61.6h-6v61.6H207.1z M207.1,443.5c0-2.2-1.8-4.2-4.1-4.2v6c-1,0-1.9-0.8-1.9-1.8c0,0,0,0,0,0H207.1z"/>
<path class="st8" d="M305,441.8c0,16-10.5,30.3-23.4,30.3c-12.9,0-23.4-14.4-23.4-30.3c0-16,16.1-62.3,23.4-62.3
	C288.9,379.5,305,425.9,305,441.8z"/>
<path class="st11" d="M282.1,401.2L282.1,401.2C282.1,401.2,282.1,401.2,282.1,401.2c0.1,0,0.1,0.1,0.1,0.1v85.2H282v-85.2
	C282,401.3,282,401.3,282.1,401.2C282,401.2,282.1,401.2,282.1,401.2L282.1,401.2z"/>
<path class="st8" d="M379.7,459.5c0,12-7.9,22.9-17.7,22.9s-17.7-10.8-17.7-22.9s12.2-47,17.7-47
	C367.6,412.5,379.7,447.5,379.7,459.5z"/>

</defs>
<mask maskUnits="userSpaceOnUse" x="358.2" y="424.8" width="8.4" height="72.7" id="c_00000173127366718562558290000015944407959919879871_">
	
		<path style="fill-rule:evenodd;clip-rule:evenodd;fill:#FFFFFF;filter:url(#Adobe_OpacityMaskFilter_00000126288999537356582280000004373935282466237856_);" d="
		M362.4,427.8L362.4,427.8c-0.7,0-1.2,0.6-1.2,1.2v65.5h2.4V429C363.6,428.3,363.1,427.8,362.4,427.8L362.4,427.8z"/>
</mask>
<path class="st13" d="M361.2,494.5h-3c0,1.7,1.3,3,3,3l0,0V494.5z M363.6,494.5v3c1.7,0,3-1.3,3-3l0,0H363.6z M362.4,424.8
	L362.4,424.8l0,6h0V424.8z M362.4,424.8c-2.4,0-4.2,2-4.2,4.2h6c0,0.9-0.7,1.8-1.8,1.8V424.8z M358.2,429v65.5h6V429H358.2z
	 M361.2,497.5h2.4v-6h-2.4V497.5z M366.6,494.5V429h-6v65.5H366.6z M366.6,429c0-2.2-1.8-4.2-4.2-4.2v6c-1,0-1.8-0.8-1.8-1.8
	c0,0,0,0,0,0H366.6z"/>
<path class="st8" d="M639,452.6c0,14.1-9.2,26.7-20.6,26.7s-20.6-12.6-20.6-26.7s14.2-54.9,20.6-54.9
	C624.8,397.7,639,438.6,639,452.6z"/>

<mask maskUnits="userSpaceOnUse" x="614.4" y="412.5" width="8.8" height="83.9" id="d_00000040541212509771760410000006189361530524928145_">
	
		<path style="fill-rule:evenodd;clip-rule:evenodd;fill:#FFFFFF;filter:url(#Adobe_OpacityMaskFilter_00000114768629114154337220000005634219427518710157_);" d="
		M618.8,415.5L618.8,415.5c-0.8,0-1.4,0.6-1.4,1.4v76.4h2.8V417C620.2,416.2,619.6,415.5,618.8,415.5L618.8,415.5z"/>
</mask>
<path class="st15" d="M617.4,493.4h-3c0,1.7,1.3,3,3,3V493.4z M620.2,493.4v3c1.7,0,3-1.3,3-3H620.2z M618.8,412.5L618.8,412.5l0,6
	h0V412.5z M618.8,412.5c-2.5,0-4.4,2.1-4.4,4.4h6c0,0.8-0.6,1.6-1.6,1.6V412.5z M614.4,417v76.4h6V417L614.4,417L614.4,417z
	 M617.4,496.4h2.8v-6h-2.8V496.4z M623.2,493.4V417h-6v76.4H623.2z M623.2,417c0-2.4-1.9-4.4-4.4-4.4v6c-0.9,0-1.6-0.7-1.6-1.6
	H623.2z"/>
<path class="st8" d="M452,481.8c0,7.7-5,14.6-11.2,14.6c-6.2,0-11.3-6.9-11.3-14.6s7.7-29.9,11.3-29.9
	C444.3,451.9,452,474.2,452,481.8z"/>

<mask maskUnits="userSpaceOnUse" x="437.3" y="458.6" width="7.5" height="48.4" id="e_00000142899023315839209940000017099406491192156343_">
	
		<path style="fill-rule:evenodd;clip-rule:evenodd;fill:#FFFFFF;filter:url(#Adobe_OpacityMaskFilter_00000145780078906366531270000017492970670796348077_);" d="
		M441,461.6L441,461.6c-0.4,0-0.8,0.4-0.8,0.8v41.7h1.5v-41.7C441.8,462,441.5,461.6,441,461.6L441,461.6z"/>
</mask>
<path class="st17" d="M440.3,504.1h-3c0,1.7,1.3,3,3,3V504.1z M441.8,504.1v3c1.7,0,3-1.3,3-3H441.8z M441,458.6L441,458.6l0,6h0
	V458.6z M441,458.6c-2.2,0-3.8,1.8-3.8,3.8h6c0,1.2-1,2.2-2.2,2.2c0,0,0,0,0,0V458.6z M437.3,462.4v41.7h6v-41.7H437.3z
	 M440.3,507.1h1.5v-6h-1.5V507.1z M444.8,504.1v-41.7h-6v41.7H444.8z M444.8,462.4c0-2-1.6-3.8-3.8-3.8v6c-1.2,0-2.2-1-2.2-2.2
	H444.8z"/>
<path class="st8" d="M552.1,473.3c0,7.7-5,14.6-11.3,14.6c-6.2,0-11.2-6.9-11.2-14.6s7.7-29.9,11.2-29.9
	C544.3,443.4,552.1,465.6,552.1,473.3z"/>
<defs>

</defs>
<mask maskUnits="userSpaceOnUse" x="537.3" y="450.1" width="7.5" height="48.4" id="f_00000058576698827166948120000004681729045925014658_">
	
		<path style="fill-rule:evenodd;clip-rule:evenodd;fill:#FFFFFF;filter:url(#Adobe_OpacityMaskFilter_00000057146242285361585060000013815689726112447113_);" d="
		M541.1,453.1L541.1,453.1c-0.4,0-0.8,0.4-0.8,0.8v41.7h1.5v-41.7C541.9,453.5,541.5,453.1,541.1,453.1L541.1,453.1z"/>
</mask>
<path class="st19" d="M540.3,495.5h-3c0,1.7,1.3,3,3,3l0,0V495.5z M541.9,495.5v3c1.7,0,3-1.3,3-3l0,0H541.9z M541.1,450.1
	L541.1,450.1l0,6h0V450.1z M541.1,450.1c-2.2,0-3.8,1.8-3.8,3.8h6c0,1.2-1,2.2-2.2,2.2c0,0,0,0,0,0V450.1z M537.3,453.9v41.7h6
	v-41.7H537.3z M540.3,498.5h1.5v-6h-1.5V498.5z M544.9,495.5v-41.7h-6v41.7H544.9z M544.9,453.9c0-2-1.6-3.8-3.8-3.8v6
	c-1.2,0-2.2-1-2.2-2.2c0,0,0,0,0,0H544.9z"/>
<path class="st8" d="M715.7,467.8c0,11.5-7.5,21.8-16.8,21.8S682,479.3,682,467.8s11.6-44.8,16.8-44.8
	C704.1,423,715.7,456.3,715.7,467.8z"/>
<defs>

</defs>
<mask maskUnits="userSpaceOnUse" x="695.1" y="434.5" width="8.3" height="69.5" id="g_00000135650511006079193250000017993186227461307831_">
	
		<path style="fill-rule:evenodd;clip-rule:evenodd;fill:#FFFFFF;filter:url(#Adobe_OpacityMaskFilter_00000022525279864821843170000001716669232984741012_);" d="
		M699.2,437.5L699.2,437.5c-0.7,0-1.2,0.5-1.2,1.2v62.3h2.3v-62.3C700.4,438.1,699.9,437.5,699.2,437.5z"/>
</mask>
<path class="st21" d="M698.1,501.1h-3c0,1.7,1.3,3,3,3V501.1z M700.4,501.1v3c1.7,0,3-1.3,3-3H700.4z M699.2,434.5L699.2,434.5l0,6
	h0V434.5z M699.2,434.5c-2.4,0-4.1,2-4.1,4.2h6c0,0.9-0.7,1.8-1.9,1.8V434.5z M695.1,438.7v62.3h6v-62.3H695.1z M698.1,504.1h2.3v-6
	h-2.3V504.1z M703.4,501.1v-62.3h-6v62.3H703.4z M703.4,438.7c0-2.2-1.8-4.2-4.1-4.2v6c-1,0-1.9-0.8-1.9-1.8c0,0,0,0,0,0H703.4z"/>
</svg>
